<?xml version="1.0" encoding="utf-8"?>
<!-- Generator: Adobe Illustrator 17.0.0, SVG Export Plug-In . SVG Version: 6.00 Build 0)  -->
<!DOCTYPE svg PUBLIC "-//W3C//DTD SVG 1.1//EN" "http://www.w3.org/Graphics/SVG/1.1/DTD/svg11.dtd">
<svg version="1.1" xmlns="http://www.w3.org/2000/svg" xmlns:xlink="http://www.w3.org/1999/xlink" x="0px" y="0px"
	 width="174.288px" height="70.904px" viewBox="0 0 174.288 70.904" enable-background="new 0 0 174.288 70.904"
	 xml:space="preserve">
<g id="Layer_1">
	<g>
		<path fill="#4D4D4D" d="M162.907,48.76c0.083,0.107,0.085,1.298-0.121,1.346c-0.206,0.049-2.971,0.085-3.674,0.061
			s-1.188,0.133-1.261-0.461c-0.073-0.594,0.558-1.142,1.528-1.215c0.97-0.073,1.239-0.18,1.305-0.532
			c0.029-0.097,1.303-0.061,1.375,0.17c0.073,0.23-0.024,0.891,0.109,0.912C162.301,49.063,162.822,48.65,162.907,48.76z"/>
		<path fill="#F1B99A" d="M162.768,66.346c-0.005,0.546,0.346,1.892-0.437,1.983s-3.456,0.018-3.711,0
			c-0.255-0.018,0.018-0.546,0.546-0.728c0.528-0.182,1.273-0.473,1.437-0.6s0.327-0.364,0.291-0.655
			c-0.036-0.291-0.122-1.328-0.207-1.637s1.207-0.655,1.626-0.673C162.731,64.018,162.786,64.4,162.768,66.346z"/>
		<path fill="#F1B99A" d="M156.853,62.662c0.104,0.221,1.207,2.537,1.296,2.852c0.089,0.315,0.287,0.948-0.96,1.343
			s-2.162,1.048-2.295,0.839c-0.133-0.209,1.268-1.615,1.386-1.753s-1.273-1.785-1.673-2.662
			C154.208,62.404,156.443,61.794,156.853,62.662z"/>
		<path fill="#BCCBD3" d="M153.9,67.864c-0.126-0.317,0.183-0.778,1.042-1.307c0.86-0.529,0.872-0.723,0.859-0.906
			s1.11-0.635,1.288-0.466s0.227,0.719,0.456,0.758s0.557-0.34,0.579-0.504c0.022-0.163,0.52,0.804,0.484,1.178
			c-0.036,0.374-0.351,0.549-2.878,1.52c-0.224,0.083-0.828,0.41-1.153,0.365C154.251,68.457,154.078,68.313,153.9,67.864z"/>
		<path fill="#1A1A1A" d="M150.626,56.922c0-0.788,0.112-1.245,0.709-3.57c0.564-2.201,0.852-4.651,0.924-5.275
			c0.072-0.624,0.12-0.935,0.744-0.623c0.624,0.311,3.763,0.817,6.845,0.745c1.282-0.03,2.936-0.331,3.279-0.641
			c0.407-0.368,0.504-0.502,0.577,0.117c0.104,0.887-0.303,1.489-0.25,3.001c0.053,1.512-0.432,5.316-0.432,7.12
			c0,1.804,0.183,5.081,0.231,6.234c0.048,1.153,0.384,2.059-0.865,2.038c-1.249-0.021-2.305,0.123-2.257-0.597
			c0.048-0.72-0.754-5.486-0.901-7.023c-0.147-1.537-0.526-6.965-1.357-7.148c-0.831-0.183-1.023-0.135-1.599,1.354
			c-0.576,1.489-1.594,3.519-1.642,4.287c-0.048,0.768,3.131,6.52,3.323,6.898c0.192,0.378-0.932,1.428-2.661,1.464
			c-0.252-0.018-2.764-4.494-3.232-5.305C151.459,58.952,150.626,57.859,150.626,56.922z"/>
		<g>
			<g>
				<g>
					<path fill="#003D47" d="M157.606,51.135c0,0,0.009,0,0.013-0.001c0.042-0.007,0.07-0.047,0.063-0.089
						c-0.21-1.213-0.001-2.707,0.001-2.728c0.004-0.042-0.027-0.08-0.069-0.084c-0.043-0.003-0.08,0.027-0.084,0.069
						c-0.009,0.09-0.213,1.537,0.001,2.77C157.537,51.108,157.57,51.135,157.606,51.135z"/>
				</g>
			</g>
		</g>
		<g>
			<g>
				<g>
					<path fill="#003D47" d="M157.487,50.788c0.021,0,0.033-0.002,0.033-0.002c0.045-0.007,0.074-0.046,0.067-0.088
						c-0.006-0.042-0.048-0.071-0.088-0.065c0,0-0.297,0.03-0.789-0.417c-0.468-0.426-0.341-1.58-0.253-1.988
						c0.009-0.042-0.017-0.083-0.059-0.092c-0.041-0.008-0.083,0.017-0.092,0.059c-0.003,0.016-0.33,1.563,0.3,2.135
						C157.067,50.749,157.385,50.788,157.487,50.788z"/>
				</g>
			</g>
		</g>
		<g>
			<path fill="#F1B99A" d="M155.145,30.379c0.158-0.085,0.796-0.317,1-1.173c0.204-0.856,0.291-1.357,0.291-1.506
				c0-0.149,3.919-0.652,3.935,0c0.016,0.652-0.11,1.855,0.974,2.719c0.259,0.212-0.251,1.225-2.128,1.461
				c-1.877,0.236-3.236-0.283-3.589-0.613S154.876,30.524,155.145,30.379z"/>
			<path fill="#EFA38C" d="M155.752,29.961c0.269-0.256,0.449-0.779,0.496-1.203s0.168-0.729,0.177-0.862
				c0.008-0.133,2.406-0.416,3.042-0.322c0.636,0.094,0.904,0.079,0.905,0.259s-0.003,0.385,0.006,0.597
				c0.009,0.212,0.007,0.182,0.012,0.252c0.005,0.071-1.081,0.871-2.133,1.075C157.206,29.962,155.752,29.961,155.752,29.961z"/>
		</g>
		<path fill="#0087B6" d="M161.268,29.904c0.097,0.09,0.381,0.395,1.766,0.956s2.285,0.651,2.714,1.205
			c0.429,0.554,1.039,2.452,1.323,3.58c0.284,1.129,0.63,2.505,0.582,3.267c-0.062,0.118-0.374,0.748-2.729,0.388
			c-0.166,0.028-0.684,1.118-0.804,2.517c-0.12,1.399-0.352,1.633-0.399,2.366c-0.024,0.382,0.029,1.032,0.113,1.165
			c0.159,0.253,0.208,0.471,0.111,0.568c-0.097,0.097-0.263,0.242-0.215,0.416c0.048,0.173,0.229,0.374,0.291,0.436
			c0.062,0.062,0.145,0.215-0.062,0.416c-0.208,0.201-0.538,1.19-4.88,1.189c-4.482,0-5.097-0.563-5.699-0.709
			c-0.603-0.145-0.968-0.321-1.176-0.573c-0.073-0.089-0.026-0.255,0.114-0.384c0.14-0.13,0.291-0.27,0.296-0.426
			c0.005-0.156-0.099-0.286-0.208-0.369c-0.109-0.083-0.145-0.421-0.021-0.597c0.125-0.177,0.002-0.345,0.026-0.57
			c0.147-1.379-0.317-2.483-0.324-2.808c-0.007-0.325-0.764-3.557-0.971-3.8s-2.195-0.609-2.341-0.706
			c-0.145-0.097-0.028-0.568,0.09-0.976s0.547-1.376,1.004-2.242c0.457-0.866,1.21-2.355,1.687-2.742
			c0.478-0.388,1.055-0.36,1.782-0.665c0.727-0.305,1.634-0.526,2.064-1.025c0.048,0.028,0.63,1.163,2.78,1.163
			C160.333,30.943,161.268,29.904,161.268,29.904z"/>
		<path fill="#5BD6F3" d="M148.709,37.229c-0.001-0.198,0.076-0.5,0.155-0.776c0.118-0.409,0.547-1.376,1.004-2.242
			c0.457-0.866,1.21-2.355,1.687-2.742s1.543-0.549,2.27-0.854c0.727-0.305,1.146-0.337,1.576-0.836
			c0.048,0.028,0.63,1.163,2.78,1.163c2.151,0,3.086-1.039,3.086-1.039c0.097,0.09,0.381,0.395,1.766,0.956
			c1.385,0.561,2.285,0.651,2.714,1.205c0.429,0.554,1.039,2.452,1.323,3.58c0.28,1.113,0.619,2.452,0.583,3.231
			c-0.037-0.087-0.189-0.427-0.804-0.671c-0.63-0.249-1.745-0.609-3.165-0.616c-0.083,0,0-1.141,0.159-2.159
			c0.159-1.018,0.512-2.244,0.596-2.41c0.083-0.166-0.27,0.083-0.914,1.773c-0.644,1.69-0.734,2.283-0.755,2.346
			c-0.021,0.062-0.859-0.014-1.205-0.104c-0.346-0.09-2.029-0.436-2.881-0.436c-0.852,0-3.068,0.464-3.941,0.561
			c-0.873,0.097-2.071,0.298-2.375,0.055c-0.305-0.242-0.215-0.822-0.194-1.189c0.021-0.367,0.256-2.043,0.381-2.375
			c0.125-0.332-0.364,0.665-0.665,2.13s-0.301,1.565-0.384,1.591c-0.072,0.023-0.551-0.166-1.257-0.28
			C149.546,36.977,148.802,36.989,148.709,37.229z"/>
		<path fill="#5BD6F3" d="M158.331,43.04c0.495,0.178,1.841,0.556,2.967,1.051c0.877,0.385,1.539,0.768,1.56,1.288
			c0.021,0.135,0.552-0.444,0.552,0.003c0,0.447,0.032,1.324-2.7,2.228c-0.021,0.042,0.172,0.013,2.021-0.62
			c0.499-0.208,1.215-0.163,0.711,0.193c-0.647,0.456-1.307,0.976-3.282,1.034c-1.975,0.058-4.451-0.098-4.981-0.169
			c-0.53-0.07-1.692-0.419-2.543-1.011c-0.187-0.166-0.047-0.267,0.442-0.158c0.488,0.109,1.134,0.404,1.28,0.461
			c0.145,0.057-0.348-0.192-0.93-0.551s-0.854-0.49-0.823-1.425s0.459-1.485,0.625-1.791c0.642-1.182,1.769-1.068,2.517-1.016
			C156.495,42.609,157.483,42.735,158.331,43.04z"/>
		<path fill="#F1B99A" d="M149.906,37.278c0.329,0.078,1.548,0.395,1.6,0.416c0.052,0.021,0.021,0.291,0,0.374
			c-0.021,0.083,0.841-0.28,2.348-0.499s3.522-0.571,3.833-0.603c0.312-0.031,2.431,0.031,2.763,0.083
			c0.332,0.052,0.831,0.135,1.257,0.416c0.426,0.28,1.382,1.008,1.382,1.07c0,0.062,0.187-0.239,0.312-0.374
			c0.125-0.062,1.756-0.187,2.794,0.135s1.174,0.551,1.101,0.81c-0.073,0.26-0.79,1.984-1.288,2.711
			c-0.499,0.727-1.177,1.597-1.643,1.546c-0.466-0.051-1.816-0.31-2.668-0.341c-0.852-0.031-2.109-0.031-3.844-0.893
			c-1.735-0.862-2.233-1.205-2.296-1.226c-0.062-0.021-1.018,0.582-1.839,0.914c-0.821,0.332-1.357,0.578-2.306,0.606
			c-0.949,0.028-1.981,0.001-2.043-0.051s-0.505-0.198-0.661-1.209c-0.156-1.011-0.052-2.673,0-3.116
			c0.052-0.443,0.079-0.734,0.121-0.796C148.871,37.188,149.353,37.147,149.906,37.278z"/>
		<path fill="#EFA38C" d="M149.065,39.979c-0.01,0.195-0.007,1.392,0.298,1.794s0.97,0.602,2.209,0.644
			c-0.561,0.015-0.876,0.022-1.177,0.017c-0.301-0.005-0.618-0.014-0.728-0.021c-0.109-0.008-0.24-0.002-0.331-0.062
			c-0.09-0.059-0.319-0.236-0.414-0.462c-0.094-0.226-0.236-0.646-0.263-1.156c-0.027-0.51-0.037-1.299-0.018-1.689
			s0.064-0.971,0.086-1.164c0.022-0.193,0.045-0.394,0.06-0.472c0.015-0.078,0.042-0.157,0.042-0.157s0.127-0.076,0.402-0.059
			s0.559,0.053,1.063,0.183c0.504,0.13,0.984,0.254,1.098,0.286c0.114,0.033,0.138,0.037,0.14,0.1
			c0.002,0.063-0.005,0.25-0.026,0.307c-0.021,0.057-0.525-0.031-0.904,0.005S149.164,38.099,149.065,39.979z"/>
		<path fill="#F1C2A8" d="M151.797,40.259c-0.208-0.004-0.717,0.031-0.976-0.727s0.555-1.402,0.82-1.474s1.425-0.371,2.213-0.489
			c0.788-0.119,2.374-0.373,2.772-0.438c0.398-0.065,1.058-0.174,1.343-0.173c0.285,0.001,1.506,0.02,1.976,0.053
			c0.471,0.033,0.966,0.101,1.21,0.194c0.244,0.093,0.451,0.426-0.456,0.453c-0.907,0.028-2.223-0.076-4.051,0.81
			C154.82,39.356,152.77,40.277,151.797,40.259z"/>
		<path fill="#EFA38C" d="M163.089,38.535c0.193,0.093,1.184,0.654,1.33,0.81c-0.042,0.052-0.81-0.374-1.423-0.405
			c-0.613-0.031-2.213-0.01-2.929,0.644s-1.278,1.423-1.34,1.766c-0.062,0.343,0.218,0.603,0.706,0.852
			c0.488,0.249,1.742,0.738,2.631,0.845c-0.366-0.024-0.986-0.038-1.246-0.068s-0.657-0.001-1.79-0.363
			c-1.133-0.362-1.975-0.89-2.197-1.007c-0.222-0.117-1.211-0.632-1.274-0.705c0.093-0.083,1.641-0.945,2.358-1.392
			c0.717-0.447,1.673-1.132,2.649-1.143S162.728,38.361,163.089,38.535z"/>
		<g>
			<path fill="#F1B99A" d="M157.031,28.05c-1.284-0.058-3.766-0.515-5.177-2.626c-1.411-2.11-2.084-5.223-2.059-8.393
				c0.026-3.17,0.898-6.467,1.796-7.731s6.389-1.418,9.288-1.084c2.899,0.334,7.005,1.129,7.03,4.593
				c0.026,3.464,0,3.767-0.103,4.385s-1.488,3.723-1.719,4.313c-0.231,0.59-1.939,3.537-3.26,4.626
				C161.763,27.011,160.443,28.204,157.031,28.05z"/>
			<g>
				<path fill="none" d="M161.059,8.23c-0.027-0.003-0.058-0.007-0.093-0.011C160.997,8.223,161.029,8.225,161.059,8.23z"/>
				<path fill="#EFA38C" d="M158.262,11.116c-1.514,0.026-1.691,0.911-1.665,1.348c0.026,0.436,0.103,1.822,0,2.694
					s-0.066,2.066-0.799,3.22c-0.809,1.275-1.344,1.47-1.129,2.364c0.24,0.998,1.979,0.837,1.979,1.102s-0.003,1.384-0.388,2.103
					c-0.385,0.719-0.318,1.41-0.334,2.059c-0.025,1.026,0.93,1.577,1.494,2.064c-1.284-0.058-4.157-0.534-5.568-2.645
					c-1.411-2.11-2.084-5.222-2.059-8.393c0.026-3.17,0.898-6.467,1.796-7.731c0.264-0.371,0.925-0.646,1.8-0.842
					c1.794-0.242,3.848-0.387,5.895-0.364c0.022,0.001,0.044,0.002,0.065,0.003l0.009,0c0.552,0.026,1.067,0.066,1.52,0.118
					c0.132,0.015,0.22,0.025,0.268,0.029c3.674,0.564,5.063,2.542,4.196,2.742C164.343,11.218,159.776,11.09,158.262,11.116z"/>
			</g>
			<path fill="#F1C2A8" d="M165.477,20.333c0.256-1.034,0.628-2.161,0.747-5.018s0.325,0.684,0.291,1.557
				c-0.034,0.872,0.202,3.394-0.428,4.636c-0.338,0.667-1.396,2.496-1.959,3.219c-0.562,0.723-1.638,1.851-2.508,2.309
				c-0.086-0.14,1.505-1.59,2.454-3.236C165.023,22.153,165.334,20.913,165.477,20.333z"/>
			<path fill="#561E11" d="M159.553,13.344c0.28-0.187,1.785-0.551,3.423-0.112s1.338,1.548,1.359,1.694
				c-0.049,0.035-0.418-0.725-2.196-0.76c-1.778-0.035-2.419,0.328-2.586,0.3C159.385,14.438,158.925,13.762,159.553,13.344z"/>
			<g>
				<path fill="#2B1C16" d="M161.378,16.188c0,0.47,0.381,0.85,0.85,0.85c0.47,0,0.85-0.381,0.85-0.85s-0.356-0.396-0.85-0.467
					C161.742,15.651,161.378,15.718,161.378,16.188z"/>
				<path fill="#2B1C16" d="M161.664,16.203c0,0.312,0.253,0.565,0.565,0.565c0.312,0,0.565-0.253,0.565-0.565
					c0-0.312-0.187-0.429-0.515-0.476C161.955,15.681,161.664,15.891,161.664,16.203z"/>
				<path fill="#FFFFFF" d="M161.621,15.996c0,0.085,0.075,0.153,0.168,0.153s0.168-0.069,0.168-0.153s-0.055-0.116-0.153-0.129
					C161.707,15.854,161.621,15.911,161.621,15.996z"/>
			</g>
			<path fill="#211002" d="M152.606,15.605c-0.075,0.429,0.212,0.837,0.641,0.911c0.429,0.075,0.837-0.212,0.911-0.641
				c0.075-0.429-0.182-0.546-0.61-0.62C153.119,15.18,152.681,15.176,152.606,15.605z"/>
			<path fill="#211002" d="M152.868,15.652c-0.049,0.284,0.14,0.554,0.424,0.604c0.284,0.05,0.554-0.14,0.604-0.424
				c0.05-0.284-0.142-0.468-0.425-0.518C153.186,15.264,152.917,15.368,152.868,15.652z"/>
			<path fill="#ECEBEC" d="M152.716,15.465c-0.018,0.103,0.051,0.202,0.154,0.22s0.202-0.051,0.22-0.154
				c0.018-0.103-0.052-0.17-0.155-0.188S152.734,15.362,152.716,15.465z"/>
			<path fill="#4F1704" d="M152.728,12.612c0.439-0.019,2.412,0.06,2.551,0.811s-0.146,0.793-0.362,0.723
				c-0.216-0.07-0.927-0.495-1.994-0.46c-1.067,0.035-1.638,0.125-2.084,0.432c-0.105-0.112-0.16-0.648,0.223-0.983
				C151.445,12.8,152.24,12.633,152.728,12.612z"/>
			<path fill="#EF8879" d="M156.258,15.019c0.062-0.045,0.474,1.732,0.102,2.841c-0.372,1.109-0.929,1.593-1.153,1.881
				c-0.223,0.288-0.303,0.734,0.109,0.976c0.412,0.242,1.731,0.483,2.661,0.288c0.929-0.195,1.338-0.455,1.022-1.264
				c-0.095-0.214,0.156-0.06,0.246,0.198s0.296,0.894-0.715,1.466c-1.011,0.572-2.775,0.475-3.326,0.183
				c-0.551-0.293-1.069-0.679-1.034-1.376s1.029-1.517,1.461-2.145c0.432-0.627,0.512-1.771,0.533-2.285
				C156.186,15.268,156.197,15.064,156.258,15.019z"/>
			<path fill="#F1C2A8" d="M157.43,18.467c0.016-0.298,0.148-2.091,0.464-2.89c0.065-0.065,0.139,0.493,0.13,1.041
				c-0.009,0.548,0.223,1.72,0.483,2.24c0.26,0.521,0.651,1.022,0.53,1.487c-0.121,0.465-0.744,0.641-1.162,0
				C157.457,19.704,157.395,19.126,157.43,18.467z"/>
			<path fill="#EC6145" d="M156.274,15.059c0,0,0.021,0.175,0.035,0.481c0.011,0.153,0.013,0.338,0.02,0.551
				c-0.003,0.212,0.001,0.452-0.024,0.71c-0.011,0.26-0.06,0.536-0.115,0.825c-0.045,0.139-0.087,0.283-0.128,0.431
				c-0.055,0.141-0.13,0.277-0.196,0.42c-0.174,0.249-0.397,0.528-0.605,0.799c-0.105,0.142-0.224,0.261-0.318,0.423
				c-0.091,0.172-0.134,0.368-0.114,0.564c0.023,0.2,0.14,0.376,0.285,0.497c0.142,0.114,0.323,0.207,0.484,0.252
				c0.329,0.115,0.688,0.154,1.014,0.179c0.331,0.018,0.652,0.023,0.955-0.002c0.301-0.019,0.595-0.063,0.844-0.151
				c0.252-0.081,0.483-0.176,0.652-0.321c0.179-0.152,0.193-0.375,0.161-0.524c-0.069-0.309-0.209-0.439-0.209-0.439l-0.012,0.018
				c0,0,0.029,0.027,0.069,0.099c0.04,0.07,0.092,0.181,0.117,0.329c0.025,0.142,0.006,0.348-0.16,0.477
				c-0.161,0.131-0.389,0.218-0.638,0.289c-0.252,0.08-0.527,0.111-0.828,0.122c-0.299,0.014-0.615,0.004-0.94-0.021
				c-0.327-0.035-0.651-0.074-0.973-0.195c-0.312-0.102-0.613-0.314-0.646-0.628c-0.011-0.153,0.028-0.311,0.104-0.447
				c0.085-0.137,0.216-0.267,0.32-0.399c0.222-0.268,0.425-0.523,0.626-0.811c0.073-0.155,0.154-0.304,0.214-0.457
				c0.046-0.157,0.09-0.31,0.128-0.461c0.045-0.306,0.084-0.594,0.083-0.861c0.016-0.267-0.014-0.51-0.024-0.725
				c-0.022-0.214-0.04-0.401-0.07-0.553c-0.048-0.305-0.088-0.475-0.088-0.475L156.274,15.059z"/>
			<g>
				<path fill="#D86A46" d="M157.371,23.449c2.471,0,3.816-0.869,3.855-0.945l-0.194-0.098l0.097,0.049l-0.077-0.077
					c-0.011,0.009-1.319,0.903-3.872,0.851c-2.587-0.047-3.196-0.991-3.201-1l-0.203,0.077c0.078,0.215,0.93,1.096,3.4,1.141
					C157.242,23.448,157.307,23.449,157.371,23.449z"/>
			</g>
			<path fill="#D86A46" d="M153.843,22.602c0,0,0.007-0.057,0.028-0.104c0.004-0.026,0.025-0.051,0.033-0.075
				c0.018-0.022,0.02-0.048,0.041-0.069c0.011-0.025,0.027-0.05,0.046-0.076c0.016-0.026,0.026-0.061,0.046-0.082
				c0.031-0.051,0.049-0.103,0.049-0.103s-0.049-0.01-0.119,0.002c-0.067,0.012-0.16,0.057-0.211,0.15
				c-0.056,0.089-0.049,0.21-0.006,0.274c0.014,0.034,0.048,0.057,0.061,0.068C153.831,22.597,153.843,22.602,153.843,22.602z"/>
			<path fill="#D86A46" d="M161.072,22.239c0,0,0.004,0.013,0.01,0.035c0.004,0.024-0.005,0.042-0.001,0.074
				c0.006,0.027-0.002,0.063,0.002,0.095c-0.001,0.033,0.004,0.066,0.004,0.099c0.001,0.033,0.008,0.066,0.008,0.099
				c-0.001,0.032,0.018,0.068,0.013,0.097c0.004,0.06,0.021,0.115,0.021,0.115s0.046-0.021,0.096-0.077
				c0.046-0.055,0.087-0.15,0.08-0.249c-0.007-0.099-0.057-0.189-0.115-0.237c-0.021-0.025-0.067-0.045-0.083-0.051
				C161.086,22.237,161.072,22.239,161.072,22.239z"/>
			<path fill="#EF8879" d="M155.607,24.026c0-0.042,0.595,0.297,1.19,0.316c0.595,0.019,1.617-0.093,1.664-0.056
				c0.046,0.037-0.957,0.734-1.738,0.623C156.095,24.819,155.607,24.1,155.607,24.026z"/>
			<path fill="#430F03" d="M156.414,26.508c0.014-0.036,0.259,1.367,1.71,1.339c1.693-0.032,2.847-0.568,3.427-0.806
				c0.374-0.154-0.866,0.84-2.543,1.219c-1.677,0.379-2.537,0.877-2.747,1.141c-0.104-0.091-0.843-1.041-1.846-1.564
				c-1.003-0.524-1.924-1.463-2.1-1.83c-0.06-0.126,1.198,0.912,1.932,1.189S155.955,27.698,156.414,26.508z"/>
			<g>
				<path fill="#3D180F" d="M168.494,9.189c0.119,0.171,0.984,1.405,0.996,1.5c0.013,0.095-0.141,1.275-0.552,2.571
					c-0.411,1.296-0.924,2.527-1.116,3.862c-0.038,0.103-0.667,0.231-1.001,0.924s-0.366,1.411-0.366,1.463
					c0,0.051-0.577,0.282-0.667,0.327c-0.09,0.045,0.344-1.631,0.558-2.701c0.214-1.069,0.239-2.951,0.068-3.909
					c-0.171-0.958-0.402-1.711-0.736-2.198C165.646,10.943,168.318,8.938,168.494,9.189z"/>
				<path fill="#3D180F" d="M150.34,7.108c-0.132,0.107-1.09,0.881-1.121,0.953s-0.177,1.033-0.148,2.143s0.933,4.84,0.985,4.213
					c0.074-0.888,0.653-2.956,1.004-3.669c0.351-0.713,0.702-1.252,1.074-1.56c0.218-0.169,0.467-0.109,0.619-0.069
					c0.152,0.041,0.022-0.857,0-0.966c-0.022-0.109-1.144-1.013-1.337-1.013C151.223,7.139,150.34,7.108,150.34,7.108z"/>
				<path fill="#6D2C1B" d="M165.68,11.028c-0.233,0.029-0.744-0.173-1.18-0.135s-4.114,0.427-7.039,0.054s-7.578-2.836-8.45-5.966
					c-0.188-0.65-0.137-2.196,0.254-2.728c0.064,0.16,0.481,1.001,2.2,0.911c0.16-0.026-0.564-0.449-0.718-1.052
					c0.09,0,1.244,1.321,4.952,1.27c0.141-0.013-1.187-0.398-1.732-1.43c0.051,0.013,0.763,0.86,4.497,1.174
					s6.203,0.475,8.692,1.899c2.489,1.424,2.014,2.643,2.014,2.643s-0.44,1.246-0.746,1.502
					C168.118,9.424,165.783,11.015,165.68,11.028z"/>
				<path fill="#491912" d="M149.513,6.135c1.521,2.566,5.393,4.487,7.948,4.812c2.925,0.373,6.603-0.016,7.039-0.054
					s0.947,0.164,1.18,0.135c0.103-0.013,2.438-1.604,2.744-1.859c0.306-0.256,0.746-1.502,0.746-1.502s0.475-1.219-2.014-2.643
					c-1.159-0.663-2.314-1.052-3.594-1.311c0,0,1.118,0.9,2.119,1.234c-0.154,0.128-3.515-0.411-4.823-0.795
					c0.154,0.231,1.052,1.257,3.105,1.488c0,0.154-1.591,0.488-3.207-0.308c-1.616-0.795-2.848-1.155-3.233-1.206
					s1.745,0.924,2.053,1.77c0,0.257-2.694-0.026-3.72-0.564c-1.026-0.539-1.514-0.744-1.693-0.924
					c-0.18-0.18,0.419,0.795,0.419,0.855c0,0.06-0.214,0.334-1.061-0.222c-0.847-0.556-1.762-1.377-1.847-1.488
					c-0.086-0.111,0.47,0.932,0.684,1.103c0.214,0.171-0.043,0.222-0.411,0.034s-1.257-0.915-1.334-1.103
					c-0.077-0.188-0.009,0.821,0.513,1.813s0.659,1.207,0.479,1.129c-0.18-0.077-1.728-1.369-2.104-2.609
					c-0.06-0.222-0.225-0.274-0.245,0.462c-0.02,0.736,0.085,1.341,0.194,1.582L149.513,6.135z"/>
			</g>
			<path fill="#230A03" d="M166.276,16.721c-0.147-0.099-0.516-0.364-0.516-0.364s0.089-0.883,0.132-0.868s1.826,1.566,1.917,1.642
				s-0.061,0.364-0.182,0.357C167.505,17.479,166.497,16.87,166.276,16.721z"/>
			<path fill="#F1B99A" d="M166.409,19.596c0.091-0.508-0.051-1.296,0.86-2.13c0.911-0.834,1.916-0.167,2.01,0.714
				c0.094,0.881-0.18,2.258-1.3,3.241c-0.462,0.385-1.035,0.53-1.377,0.334c-0.342-0.197-0.539-0.291-0.445-0.778
				S166.319,20.096,166.409,19.596z"/>
			<path fill="#E26B45" d="M167.131,19.318c-0.036-0.196,0.182-0.847,0.583-1.197c0.401-0.351,1.342-0.009,1.102,1.018
				c-0.043-0.128-0.086-0.701-0.607-0.804c-0.214-0.026-0.445,0.209-0.436,0.318c0.009,0.109,0.582,0.4,0.556,1.059
				c-0.026,0.659-0.522,1.437-1.514,1.386c0.06-0.077,1.13-0.257,1.104-1.24c0.008-0.436-0.223-0.701-0.445-0.693
				C167.251,19.172,167.131,19.318,167.131,19.318z"/>
			<g>
				<path fill="#230A03" d="M164.867,15.034c0.323,0.117,0.647,0.233,0.962,0.368c0.096,0.041,0.229,0.142,0.235,0.224
					c0.027,0.347,0.042,0.696-0.209,0.998c-0.092,0.11-0.139,0.277-0.158,0.424c-0.075,0.597-0.265,1.149-0.638,1.621
					c-0.882,1.113-2.054,1.563-3.45,1.443c-1.04-0.09-1.912-0.536-2.591-1.332c-0.56-0.658-0.825-1.422-0.771-2.29
					c0.022-0.363-0.115-0.538-0.471-0.597c-0.055-0.009-0.11-0.014-0.166-0.018c-0.375-0.031-0.662,0.128-0.688,0.592
					c-0.045,0.811-0.385,1.501-0.965,2.062c-1.231,1.19-3.177,1.435-4.658,0.579c-1.231-0.712-1.884-1.763-1.815-3.216
					c0.002-0.039-0.016-0.084-0.037-0.12c-0.182-0.314-0.278-0.636-0.202-1.009c0.041-0.203,0.123-0.326,0.32-0.367
					c0.472-0.099,0.943-0.201,1.416-0.288c1.103-0.203,2.21-0.194,3.318-0.05c0.536,0.07,1.068,0.17,1.549,0.426
					c0.292,0.155,0.558,0.36,0.836,0.543c0.438,0.289,0.9,0.505,1.439,0.354c0.254-0.071,0.508-0.166,0.737-0.295
					c0.396-0.224,0.778-0.455,1.244-0.528c0.648-0.102,1.294-0.089,1.789-0.07C163.012,14.549,163.957,14.704,164.867,15.034z
					 M151.326,14.364c-0.518,0.102-0.993,0.29-1.282,0.774c-0.174,0.291-0.218,0.616-0.246,0.948
					c-0.046,0.541,0.124,1.025,0.38,1.479c0.471,0.838,1.205,1.346,2.122,1.594c0.992,0.268,1.94,0.13,2.815-0.395
					c0.887-0.532,1.413-1.317,1.492-2.363c0.063-0.836-0.306-1.405-1.085-1.713c-0.654-0.258-1.346-0.323-2.037-0.384
					c-0.066-0.006-0.133-0.008-0.2-0.012C152.63,14.261,151.974,14.236,151.326,14.364z M160.091,14.893
					c-0.611,0.12-1.146,0.363-1.392,0.997c-0.179,0.461-0.187,0.937-0.065,1.408c0.34,1.318,1.228,2.088,2.517,2.405
					c1.2,0.295,2.293,0.031,3.23-0.78c0.611-0.528,0.943-1.211,0.988-2.022c0.046-0.825-0.314-1.375-1.082-1.683
					c-0.601-0.241-1.236-0.307-1.871-0.37c-0.11-0.011-0.222-0.014-0.333-0.021C161.418,14.791,160.75,14.763,160.091,14.893z
					 M165.935,15.711c-0.016-0.002-0.032-0.003-0.048-0.005c-0.075,0.141-0.055,0.293-0.044,0.444
					c0.022,0.002,0.043,0.004,0.065,0.006C165.917,16.008,165.926,15.86,165.935,15.711z"/>
				<path fill="#44190A" d="M155.735,17.787c-0.703,0.643-1.488,1.118-2.465,1.205C154.122,19.139,155.153,18.669,155.735,17.787z"
					/>
				<path fill="#44190A" d="M161.551,19.497c-0.968-0.214-1.691-0.789-2.319-1.55C159.551,18.707,160.47,19.509,161.551,19.497z"/>
			</g>
		</g>
		<path fill="#5BD6F3" d="M13.245,53.016h-0.877c-0.023-0.023-0.047-0.035-0.07-0.035c-0.304,0-0.596-0.018-0.876-0.053
			c-0.281-0.035-0.561-0.076-0.842-0.123c-0.35-0.047-0.696-0.111-1.034-0.193c-0.339-0.081-0.672-0.181-0.999-0.298
			c-0.047,0-0.082-0.035-0.105-0.105l-0.21-1.683c-0.07-0.467-0.14-0.947-0.21-1.437c-0.07-0.491-0.129-0.97-0.175-1.437
			c-0.023-0.14-0.047-0.286-0.07-0.438c-0.024-0.152-0.047-0.298-0.07-0.438c0.07,0,0.105,0.012,0.105,0.035
			c0.327,0.117,0.66,0.223,0.999,0.316c0.338,0.094,0.671,0.187,0.999,0.28c0.467,0.117,0.947,0.223,1.437,0.316
			c0.491,0.094,0.993,0.14,1.507,0.14c0.257-0.023,0.52-0.058,0.789-0.105c0.268-0.046,0.531-0.14,0.789-0.28
			c0.724-0.467,1.052-1.11,0.982-1.928c-0.047-0.257-0.129-0.491-0.245-0.701c-0.117-0.21-0.269-0.408-0.456-0.596
			c-0.281-0.257-0.585-0.496-0.912-0.719c-0.328-0.222-0.655-0.426-0.982-0.613c-0.631-0.374-1.262-0.748-1.893-1.122
			c-0.631-0.374-1.251-0.759-1.858-1.157c-0.468-0.303-0.911-0.614-1.332-0.929c-0.421-0.316-0.818-0.672-1.192-1.069
			c-0.398-0.444-0.731-0.917-0.999-1.42c-0.269-0.502-0.462-1.046-0.579-1.63c-0.023-0.116-0.041-0.216-0.052-0.298
			c-0.012-0.081-0.018-0.169-0.018-0.263v-0.912c0-0.14,0.023-0.327,0.07-0.561c0.117-0.561,0.304-1.075,0.561-1.542
			c0.257-0.467,0.584-0.899,0.982-1.297c0.444-0.444,0.917-0.824,1.42-1.14c0.502-0.315,1.034-0.59,1.595-0.824
			c0.631-0.281,1.285-0.496,1.963-0.649c0.678-0.152,1.367-0.251,2.068-0.298c0.233,0,0.409-0.011,0.526-0.035h1.648h0.105
			c0.233,0.024,0.461,0.041,0.684,0.053c0.222,0.012,0.45,0.041,0.684,0.088c1.729,0.187,3.377,0.608,4.943,1.262
			c0.023,0,0.041,0.006,0.053,0.018c0.012,0.012,0.041,0.017,0.088,0.017v0.175c-0.024,0.024-0.035,0.047-0.035,0.07
			c-0.047,0.398-0.094,0.789-0.14,1.175c-0.047,0.386-0.094,0.777-0.14,1.174c-0.047,0.444-0.1,0.877-0.158,1.297
			c-0.059,0.421-0.111,0.853-0.158,1.297c0,0.117-0.047,0.14-0.14,0.07c-0.468-0.257-0.947-0.485-1.437-0.684
			c-0.491-0.198-1.005-0.368-1.542-0.508c-0.584-0.187-1.169-0.321-1.753-0.403c-0.584-0.082-1.18-0.088-1.788-0.017
			c-0.28,0.047-0.549,0.105-0.806,0.175c-0.257,0.07-0.503,0.187-0.736,0.35c-0.35,0.258-0.561,0.567-0.631,0.929
			c-0.07,0.363,0,0.719,0.21,1.069c0.187,0.304,0.456,0.596,0.806,0.877c0.397,0.328,0.8,0.626,1.21,0.894
			c0.409,0.269,0.847,0.532,1.315,0.789c0.864,0.468,1.659,1.011,2.384,1.63c0.724,0.62,1.39,1.303,1.998,2.051
			c1.098,1.356,1.542,2.887,1.332,4.592c-0.257,1.8-1.064,3.272-2.419,4.417c-0.888,0.771-1.84,1.344-2.857,1.718
			c-1.017,0.374-2.098,0.585-3.243,0.631C13.362,52.981,13.292,52.993,13.245,53.016z"/>
		<path fill="#5BD6F3" d="M48.931,41.448v-0.806c0.023,0,0.035-0.023,0.035-0.07c0.023-0.14,0.047-0.281,0.07-0.421
			c0.023-0.14,0.058-0.281,0.105-0.421c0.163-0.467,0.386-0.876,0.666-1.227c0.281-0.351,0.608-0.666,0.982-0.947
			c0.654-0.514,1.355-0.899,2.103-1.157c0.748-0.257,1.531-0.421,2.349-0.491c0.07-0.023,0.146-0.029,0.228-0.018
			c0.081,0.012,0.158-0.005,0.228-0.052h1.297c0.023,0.023,0.058,0.035,0.105,0.035c0.724,0.047,1.414,0.152,2.068,0.316
			c0.982,0.234,1.922,0.538,2.822,0.911c0.899,0.374,1.782,0.818,2.647,1.332v0.035c-0.047,0.024-0.076,0.047-0.088,0.07
			c-0.012,0.024-0.03,0.047-0.053,0.07c-0.491,0.468-0.97,0.947-1.437,1.437c-0.468,0.491-0.935,1.005-1.402,1.542
			c-0.07,0.07-0.153,0.082-0.246,0.035c-0.818-0.514-1.718-0.934-2.699-1.262c-0.398-0.117-0.801-0.21-1.21-0.281
			c-0.409-0.07-0.836-0.082-1.28-0.035c-0.28,0-0.538,0.07-0.771,0.21c-0.21,0.14-0.339,0.339-0.386,0.596
			c-0.047,0.258,0.023,0.479,0.21,0.666c0.14,0.187,0.316,0.327,0.526,0.421c0.187,0.094,0.386,0.181,0.596,0.263
			c0.21,0.082,0.421,0.158,0.631,0.228c0.374,0.117,0.748,0.234,1.122,0.351c0.373,0.117,0.748,0.269,1.122,0.456
			c0.421,0.187,0.818,0.386,1.192,0.596c0.374,0.21,0.724,0.479,1.052,0.806c0.818,0.725,1.215,1.601,1.192,2.629
			c-0.047,1.496-0.573,2.746-1.577,3.751c-1.169,1.169-2.606,1.823-4.312,1.963c-0.07,0-0.146,0-0.228,0
			c-0.082,0-0.17,0.012-0.263,0.035h-0.736h-0.105c-0.328-0.023-0.643-0.058-0.947-0.105c-0.304-0.046-0.608-0.093-0.911-0.14
			c-0.655-0.14-1.292-0.31-1.91-0.508c-0.62-0.198-1.233-0.415-1.84-0.649c-0.047-0.023-0.07-0.07-0.07-0.14
			c0.211-0.631,0.421-1.262,0.631-1.893c0.21-0.631,0.444-1.25,0.701-1.858c0.023-0.093,0.093-0.128,0.21-0.105
			c0.467,0.188,0.941,0.368,1.42,0.544c0.479,0.175,0.964,0.333,1.455,0.473c0.28,0.07,0.555,0.129,0.824,0.175
			c0.268,0.047,0.555,0.047,0.859,0c0.397-0.023,0.759-0.198,1.087-0.526c0.163-0.187,0.228-0.421,0.193-0.701
			c-0.035-0.28-0.181-0.479-0.438-0.596c-0.047-0.023-0.094-0.04-0.14-0.053c-0.047-0.011-0.094-0.029-0.14-0.052
			c-0.444-0.187-0.9-0.362-1.367-0.526c-0.468-0.163-0.935-0.327-1.402-0.491c-0.444-0.14-0.882-0.292-1.315-0.456
			c-0.433-0.163-0.847-0.362-1.245-0.596c-1.145-0.654-1.835-1.577-2.068-2.769c-0.047-0.117-0.076-0.222-0.088-0.315
			C48.972,41.635,48.954,41.541,48.931,41.448z"/>
		<path fill="#0B4664" d="M86.765,52.771v0.105c0.023,0.117-0.012,0.152-0.105,0.105c0,0.023-0.024,0.012-0.07-0.035
			c-0.258-0.046-0.509-0.081-0.754-0.105c-0.245-0.023-0.497-0.058-0.754-0.105c-0.655-0.093-1.303-0.163-1.945-0.21
			c-0.643-0.046-1.292-0.093-1.946-0.14c-0.117-0.023-0.187-0.093-0.21-0.21c-0.117-0.631-0.228-1.268-0.333-1.911
			c-0.105-0.642-0.216-1.28-0.333-1.91c-0.024-0.093-0.094-0.14-0.21-0.14c-0.304-0.023-0.608-0.04-0.912-0.052
			c-0.304-0.012-0.608-0.018-0.912-0.018c-0.701,0-1.402,0-2.103,0c-0.701,0-1.391,0.024-2.068,0.07c-0.094,0-0.14,0.035-0.14,0.105
			c-0.047,0.164-0.076,0.322-0.088,0.473c-0.012,0.152-0.041,0.298-0.088,0.438c-0.117,0.514-0.217,1.017-0.298,1.507
			c-0.082,0.491-0.17,0.982-0.263,1.472c0,0.094-0.059,0.152-0.175,0.175l-1.683,0.105c-0.491,0.047-0.982,0.1-1.472,0.158
			c-0.491,0.059-0.982,0.135-1.472,0.228c-0.14,0.024-0.275,0.035-0.403,0.035c-0.129,0-0.252,0.024-0.368,0.07
			c-0.094,0.023-0.128,0.012-0.105-0.035c0.023-0.046,0.023-0.093,0-0.14c0.023,0,0.035-0.023,0.035-0.07l0.316-2.734
			c0.093-0.771,0.198-1.542,0.315-2.314c0.117-0.771,0.233-1.542,0.351-2.314c0.187-1.028,0.374-2.045,0.561-3.05
			c0.187-1.005,0.397-2.021,0.631-3.05c0.303-1.425,0.637-2.833,0.999-4.224c0.362-1.39,0.742-2.787,1.139-4.189
			c0.14-0.491,0.28-0.975,0.421-1.455c0.14-0.479,0.281-0.964,0.421-1.455c0.023-0.023,0.041-0.047,0.053-0.07
			c0.011-0.023,0.041-0.035,0.088-0.035c0.303-0.023,0.607-0.035,0.912-0.035c0.303,0,0.619-0.011,0.946-0.035
			c0.117,0,0.222,0,0.316,0c0.093,0,0.198-0.012,0.316-0.035h3.611c0.023,0.023,0.058,0.035,0.105,0.035
			c0.397,0,0.777,0.006,1.14,0.017c0.362,0.012,0.742,0.03,1.139,0.053c0.14,0,0.222,0.059,0.245,0.175
			c0.748,2.384,1.414,4.744,1.998,7.081c0.233,0.935,0.456,1.858,0.666,2.769c0.21,0.912,0.409,1.835,0.596,2.769
			c0.163,0.771,0.315,1.542,0.456,2.314s0.281,1.542,0.421,2.314l0.526,3.47c0.07,0.538,0.14,1.075,0.21,1.613
			c0.07,0.538,0.128,1.075,0.175,1.613c0.023,0.14,0.04,0.275,0.053,0.403C86.724,52.496,86.742,52.631,86.765,52.771z
			 M77.09,43.762c0.701-0.023,1.379-0.023,2.033,0c0.093,0,0.128-0.035,0.105-0.105c-0.14-0.677-0.286-1.35-0.438-2.015
			c-0.152-0.666-0.298-1.338-0.438-2.016c-0.21-0.935-0.409-1.864-0.596-2.787c-0.187-0.923-0.363-1.852-0.526-2.787l-0.105-0.631
			c0-0.046-0.012-0.07-0.035-0.07c-0.047,0-0.07,0.024-0.07,0.07v0.035c-0.117,0.678-0.24,1.344-0.368,1.998
			c-0.129,0.655-0.252,1.309-0.368,1.963c-0.21,1.052-0.427,2.092-0.649,3.12c-0.222,1.029-0.45,2.068-0.683,3.12
			c0,0.07,0.035,0.105,0.105,0.105H77.09z"/>
		<path fill="#0B4664" d="M133.808,35.839c0,0.023,0.023,0.035,0.07,0.035c0.421,0.024,0.847,0.047,1.28,0.07
			c0.432,0.024,0.859,0.059,1.28,0.105c0.467,0.047,0.917,0.1,1.35,0.158c0.432,0.059,0.87,0.111,1.315,0.158
			c0.35,0.047,0.701,0.094,1.052,0.14c0.351,0.047,0.701,0.094,1.052,0.14c0.07,0.024,0.082,0.07,0.035,0.14
			c-0.818,1.262-1.607,2.541-2.366,3.838c-0.76,1.297-1.49,2.612-2.191,3.944c-1.005,1.893-1.934,3.816-2.787,5.767
			c-0.853,1.951-1.654,3.944-2.401,5.977c-0.374,1.075-3.507,10.781-3.857,11.879c-0.047,0.07-0.094,0.105-0.14,0.105
			c-1.73-0.024-3.448,0.046-5.153,0.21c-0.094,0-0.117-0.035-0.07-0.105c0.163-0.818,3.109-10.238,3.297-11.021
			c0.187-0.783,0.374-1.56,0.561-2.331c0.117-0.397,0.228-0.8,0.333-1.209c0.105-0.409,0.216-0.812,0.333-1.21
			c0.023-0.047,0.029-0.082,0.018-0.105c-0.012-0.023-0.018-0.058-0.018-0.105c-1.099-2.571-2.302-5.036-3.611-7.397
			c-1.496-2.781-3.167-5.504-5.013-8.168c-0.047-0.07-0.082-0.117-0.105-0.14v-0.07c0.047,0.024,0.076,0.03,0.088,0.017
			c0.011-0.011,0.04-0.017,0.088-0.017c0.607-0.093,1.215-0.181,1.823-0.263c0.608-0.082,1.215-0.158,1.823-0.228
			c0.537-0.046,1.075-0.088,1.613-0.123c0.537-0.035,1.075-0.075,1.613-0.123c0.093-0.023,0.175-0.029,0.245-0.018
			c0.07,0.012,0.14-0.005,0.21-0.052h0.28c0.233,0.468,0.461,0.935,0.684,1.402c0.222,0.468,0.45,0.935,0.684,1.402
			c0.467,0.982,0.9,1.958,1.297,2.927c0.397,0.97,0.759,1.981,1.087,3.032c0,0.07,0.035,0.105,0.105,0.105
			c0.047,0,0.07-0.035,0.07-0.105c0.117-0.467,0.239-0.923,0.368-1.367c0.128-0.444,0.286-0.888,0.473-1.332
			c0.701-1.683,1.449-3.318,2.243-4.908c0.093-0.187,0.187-0.38,0.28-0.579c0.093-0.198,0.187-0.391,0.281-0.578H133.808z"/>
		<path fill="#5BD6F3" d="M39.677,35.839c0,0.023,0.023,0.035,0.07,0.035c0.421,0.024,0.847,0.047,1.28,0.07
			c0.432,0.024,0.859,0.059,1.28,0.105c0.467,0.047,0.917,0.1,1.35,0.158c0.432,0.059,0.87,0.111,1.315,0.158
			c0.35,0.047,0.701,0.094,1.052,0.14c0.351,0.047,0.701,0.094,1.052,0.14c0.07,0.024,0.082,0.07,0.035,0.14
			c-0.818,1.262-1.607,2.541-2.366,3.838c-0.76,1.297-1.49,2.612-2.191,3.944c-1.005,1.893-1.934,3.816-2.787,5.767
			c-0.853,1.951-1.654,3.944-2.401,5.977c-0.374,1.075-3.507,10.781-3.857,11.879c-0.047,0.07-0.094,0.105-0.14,0.105
			c-1.73-0.024-3.448,0.046-5.153,0.21c-0.094,0-0.117-0.035-0.07-0.105c0.163-0.818,3.109-10.238,3.297-11.021
			c0.187-0.783,0.374-1.56,0.561-2.331c0.117-0.397,0.228-0.8,0.333-1.209c0.105-0.409,0.216-0.812,0.333-1.21
			c0.023-0.047,0.029-0.082,0.018-0.105c-0.012-0.023-0.018-0.058-0.018-0.105c-1.099-2.571-2.302-5.036-3.611-7.397
			c-1.496-2.781-3.167-5.504-5.013-8.168c-0.047-0.07-0.082-0.117-0.105-0.14v-0.07c0.047,0.024,0.076,0.03,0.088,0.017
			c0.011-0.011,0.04-0.017,0.088-0.017c0.607-0.093,1.215-0.181,1.823-0.263c0.608-0.082,1.215-0.158,1.823-0.228
			c0.537-0.046,1.075-0.088,1.613-0.123c0.537-0.035,1.075-0.075,1.613-0.123c0.093-0.023,0.175-0.029,0.245-0.018
			c0.07,0.012,0.14-0.005,0.21-0.052h0.28c0.233,0.468,0.461,0.935,0.684,1.402c0.222,0.468,0.45,0.935,0.684,1.402
			c0.467,0.982,0.9,1.958,1.297,2.927c0.397,0.97,0.759,1.981,1.087,3.032c0,0.07,0.035,0.105,0.105,0.105
			c0.047,0,0.07-0.035,0.07-0.105c0.117-0.467,0.239-0.923,0.368-1.367c0.128-0.444,0.286-0.888,0.473-1.332
			c0.701-1.683,1.449-3.318,2.243-4.908c0.093-0.187,0.187-0.38,0.28-0.579c0.093-0.198,0.187-0.391,0.281-0.578H39.677z"/>
		<path fill="#0B4664" d="M100.98,28.162c-0.199-0.023-0.392-0.047-0.579-0.07c-0.468-0.07-0.935-0.123-1.402-0.158
			c-0.468-0.035-0.935-0.075-1.402-0.123c-0.21-0.023-0.415-0.035-0.614-0.035c-0.199,0-0.403,0-0.613,0
			c-0.024,0-0.047-0.012-0.07-0.035h-2.454c-0.117,0.023-0.223,0.035-0.316,0.035c-0.094,0-0.187,0-0.28,0
			c-0.701,0.047-1.402,0.1-2.103,0.158c-0.701,0.059-1.391,0.135-2.068,0.228c-0.234,0.047-0.409,0.07-0.526,0.07v0.14
			c0.047,0.117,0.076,0.228,0.088,0.333c0.011,0.105,0.029,0.216,0.053,0.333c0.093,0.582,0.18,1.152,0.262,1.711l0.003,0
			c0.054,0.342,0.13,0.831,0.225,1.434l-0.009,0.001c0.015,0.098,0.029,0.191,0.044,0.29c0.093,0.584,0.187,1.169,0.281,1.753
			c0.038,0.24,0.077,0.49,0.115,0.734l0.005-0.001c0.06,0.385,0.123,0.784,0.188,1.195l-0.003,0c0.084,0.538,0.17,1.075,0.256,1.612
			c0.064,0.402,0.129,0.817,0.193,1.231l0.001,0c0.054,0.343,0.108,0.689,0.163,1.035l-0.003,0c0.065,0.405,0.13,0.81,0.189,1.222
			c0.077,0.543,0.161,1.079,0.249,1.612l0.01-0.001c0.044,0.281,0.088,0.56,0.132,0.836h0c0,0.001,0,0.001,0,0.001
			c0.636,4.043,1.168,7.422,1.168,7.422h0.001c0.023,0.151,0.046,0.307,0.07,0.454c0.07,0.444,0.152,0.9,0.245,1.367v0.035h0.21
			c0.117-0.047,0.222-0.07,0.316-0.07c0.093,0,0.198,0,0.315,0c1.028-0.14,2.103-0.152,3.225-0.035
			c0.14,0.024,0.286,0.041,0.438,0.053c0.152,0.012,0.298,0.03,0.438,0.053h0.035h0.21c0-0.117,0.012-0.246,0.035-0.386
			c0.023-0.14,0.047-0.281,0.07-0.421c0.093-0.561,0.187-1.122,0.28-1.683c0.007-0.045,0.015-0.092,0.022-0.137l-0.004,0
			c0.019-0.121,0.041-0.254,0.064-0.398l0.005,0.001c0.064-0.391,0.128-0.78,0.193-1.182l0.258-1.653l-0.004,0
			c0.033-0.208,0.067-0.42,0.101-0.637l0.002,0l0.092-0.592c0.228-1.433,0.483-3.036,0.741-4.655
			c0.058-0.338,0.112-0.672,0.159-0.998c0-0.003,0.001-0.006,0.001-0.009c0.799-5.03,1.571-9.892,1.571-9.892l0,0
			c0.014-0.083,0.028-0.165,0.04-0.248c0.082-0.538,0.169-1.075,0.263-1.613v-0.07v-0.175
			C101.371,28.209,101.178,28.186,100.98,28.162z"/>
		<path fill="#0B4664" d="M115.738,28.162c-0.199-0.023-0.392-0.047-0.579-0.07c-0.468-0.07-0.935-0.123-1.402-0.158
			c-0.468-0.035-0.935-0.075-1.402-0.123c-0.21-0.023-0.415-0.035-0.614-0.035c-0.199,0-0.403,0-0.613,0
			c-0.024,0-0.047-0.012-0.07-0.035h-2.454c-0.117,0.023-0.223,0.035-0.316,0.035c-0.094,0-0.187,0-0.28,0
			c-0.701,0.047-1.402,0.1-2.103,0.158c-0.701,0.059-1.391,0.135-2.068,0.228c-0.234,0.047-0.409,0.07-0.526,0.07v0.14
			c0.047,0.117,0.076,0.228,0.088,0.333c0.011,0.105,0.029,0.216,0.053,0.333c0.093,0.582,0.18,1.153,0.262,1.711l0.005-0.001
			l0.225,1.434l-0.007,0.001c0.012,0.098,0.025,0.192,0.041,0.29c0.093,0.584,0.187,1.169,0.281,1.753
			c0.038,0.24,0.077,0.49,0.115,0.734l0.005-0.001l0.19,1.194l-0.005,0.001c0.083,0.538,0.169,1.075,0.256,1.612
			c0.064,0.402,0.129,0.818,0.193,1.231l0.002,0l0.164,1.035l-0.005,0.001c0.065,0.405,0.13,0.81,0.189,1.222
			c0.077,0.543,0.161,1.079,0.249,1.612l0.011-0.001l0.131,0.836l-0.001,0c0.006,0.031,0.011,0.062,0.016,0.094l1.223,7.784
			c0.07,0.444,0.152,0.9,0.245,1.367v0.035h0.21c0.117-0.047,0.222-0.07,0.316-0.07c0.093,0,0.198,0,0.315,0
			c1.028-0.14,2.103-0.152,3.225-0.035c0.14,0.024,0.286,0.041,0.438,0.053c0.152,0.012,0.298,0.03,0.438,0.053h0.035h0.21
			c0-0.117,0.012-0.246,0.035-0.386c0.023-0.14,0.047-0.281,0.07-0.421c0.093-0.561,0.187-1.122,0.28-1.683
			c0.007-0.045,0.015-0.092,0.022-0.137l-0.008-0.001l0.063-0.398l0.01,0.001c0.064-0.391,0.128-0.78,0.193-1.182l0.258-1.653
			c0,0-0.006-0.001-0.01-0.001l0.102-0.637l0.008,0.001l0.168-1.075c0.08-0.483,0.154-0.965,0.226-1.448l0.398-2.498
			c0.074-0.415,0.142-0.826,0.2-1.225c0.012-0.081,0.024-0.165,0.036-0.246l-0.001,0l1.578-9.902
			c0.082-0.538,0.169-1.075,0.263-1.613v-0.07v-0.175C116.129,28.209,115.936,28.186,115.738,28.162z"/>
		<path fill="#0B4664" d="M50.801,61.007v6.711H49.91v-4.891l-2.247,4.891h-0.571l-2.256-4.891v4.891h-0.881v-6.711h0.901
			l2.528,5.501l2.518-5.501H50.801z"/>
		<path fill="#0B4664" d="M53.503,67.025c-0.484-0.52-0.726-1.185-0.726-1.995s0.24-1.466,0.721-1.966
			c0.481-0.5,1.086-0.751,1.816-0.751c0.452,0,0.847,0.107,1.186,0.319c0.339,0.213,0.596,0.491,0.77,0.833v-1.065h0.891v5.317
			H57.27v-1.084c-0.174,0.348-0.431,0.631-0.77,0.847c-0.339,0.216-0.734,0.324-1.186,0.324
			C54.59,67.805,53.987,67.545,53.503,67.025z M56.742,66.507c0.352-0.361,0.528-0.842,0.528-1.443c0-0.6-0.176-1.081-0.528-1.443
			c-0.352-0.361-0.775-0.542-1.269-0.542c-0.494,0-0.917,0.175-1.268,0.523c-0.352,0.349-0.528,0.823-0.528,1.424
			c0,0.6,0.178,1.088,0.533,1.462c0.355,0.374,0.778,0.562,1.269,0.562C55.969,67.05,56.39,66.869,56.742,66.507z"/>
		<path fill="#0B4664" d="M61.366,67.718h-0.881v-7.166h0.881v4.203l2.033-2.353h1.24l-2.508,2.644l2.508,2.673h-1.191l-2.082-2.334
			V67.718z"/>
		<path fill="#0B4664" d="M68.551,67.805c-0.762,0-1.382-0.252-1.86-0.755c-0.478-0.504-0.717-1.169-0.717-1.995
			c0-0.826,0.242-1.49,0.726-1.99c0.484-0.5,1.112-0.751,1.884-0.751s1.391,0.237,1.859,0.712c0.468,0.474,0.702,1.08,0.702,1.816
			c0,0.187-0.013,0.361-0.039,0.523h-4.232c0.026,0.529,0.192,0.947,0.499,1.254c0.306,0.307,0.699,0.46,1.177,0.46
			c0.361,0,0.667-0.081,0.915-0.242c0.248-0.161,0.431-0.374,0.547-0.639h0.949c-0.168,0.465-0.457,0.849-0.867,1.152
			C69.686,67.654,69.171,67.805,68.551,67.805z M69.742,63.5c-0.317-0.306-0.708-0.46-1.177-0.46c-0.468,0-0.857,0.15-1.167,0.45
			c-0.31,0.3-0.481,0.712-0.513,1.235h3.341C70.22,64.216,70.059,63.807,69.742,63.5z"/>
		<path fill="#0B4664" d="M76.889,67.718v-6.711h0.881v6.711H76.889z"/>
		<path fill="#0B4664" d="M79.794,61.714v-0.707h4.426v0.707h-1.772v6.004h-0.881v-6.004H79.794z"/>
		<path fill="#0B4664" d="M96.121,62.401h0.891l-1.675,5.317h-0.91l-1.201-4.222l-1.201,4.222h-0.92l-1.685-5.317h0.91l1.23,4.435
			l1.249-4.435h0.91l1.182,4.445L96.121,62.401z"/>
		<path fill="#0B4664" d="M99.109,67.05c-0.487-0.504-0.731-1.165-0.731-1.985c0-0.82,0.255-1.483,0.765-1.99
			c0.51-0.507,1.149-0.76,1.918-0.76c0.768,0,1.407,0.253,1.917,0.76c0.51,0.507,0.765,1.169,0.765,1.985
			c0,0.817-0.266,1.479-0.799,1.985c-0.533,0.507-1.183,0.76-1.951,0.76S99.596,67.553,99.109,67.05z M100.992,67.079
			c0.497,0,0.928-0.179,1.293-0.538c0.365-0.358,0.547-0.854,0.547-1.486c0-0.632-0.175-1.126-0.523-1.482
			c-0.349-0.355-0.773-0.533-1.274-0.533c-0.5,0-0.918,0.178-1.254,0.533c-0.336,0.355-0.504,0.851-0.504,1.486
			c0,0.636,0.162,1.132,0.484,1.486C100.085,66.901,100.495,67.079,100.992,67.079z"/>
		<path fill="#0B4664" d="M106.599,62.401v0.901c0.316-0.659,0.855-0.988,1.617-0.988v0.92h-0.232c-0.452,0-0.796,0.118-1.031,0.354
			c-0.236,0.236-0.353,0.644-0.353,1.225v2.905h-0.881v-5.317H106.599z"/>
		<path fill="#0B4664" d="M111.034,67.718h-0.881v-7.166h0.881v4.203l2.033-2.353h1.24l-2.508,2.644l2.508,2.673h-1.191
			l-2.082-2.334V67.718z"/>
		<path fill="#BCCBD3" d="M162.986,67.434c0.089,0.115,0.091,1.393-0.13,1.445s-3.189,0.091-3.944,0.065
			c-0.755-0.026-1.276,0.143-1.354-0.495c-0.078-0.638,0.599-1.226,1.64-1.304c1.041-0.078,1.33-0.193,1.4-0.571
			c0.032-0.104,1.398-0.065,1.477,0.182c0.078,0.247-0.026,0.957,0.117,0.979C162.335,67.759,162.895,67.317,162.986,67.434z"/>
	</g>
</g>
<g id="Layer_2">
</g>
<g id="Layer_3">
</g>
</svg>
